# xmcd
#
# Track frame offsets: 
#        150
#        18633
#        33998
#        51594
#        75991
#        92361
#        106366
#        127308
#        152461
#        165252
#        181577
#        199938
#        215899
#        232082
#        252647
#        263908
#        279980
#        300630
#        313461
#
# Disc length: 4359 seconds
#
# Revision: 6
# Processed by: cddbd v1.5.2PL0 Copyright (c) Steve Scherf et al.
# Submitted via: ExactAudioCopy v0.95b4
#
DISCID=0c110513
DTITLE=The Rolling Stones - THE VERY BEST Vol.2
DYEAR=2001
DGENRE=Rock
TTITLE0=Time Waits For No One
TTITLE1=Harlem Shuffle
TTITLE2=I Got The Blues
TTITLE3=Might As Well Get Juiced
TTITLE4=Sad Sad Sad
TTITLE5=Sittin' On A Fence
TTITLE6=Manish Boy Boy
TTITLE7=Sister Morphine
TTITLE8=Mother's Little Helper
TTITLE9=You Got Me Rocking
TTITLE10=Fool To Cry
TTITLE11=Hot Stuff
TTITLE12=Hold On To You Hat
TTITLE13=Anybody Seen My Baby
TTITLE14=Congratulation
TTITLE15=Miss You
TTITLE16=Crazy Mama
TTITLE17=New Faces
TTITLE18=Long, Long While
EXTD=YEAR: 2001 ID3G: 17
EXTT0=
EXTT1=
EXTT2=
EXTT3=
EXTT4=
EXTT5=
EXTT6=
EXTT7=
EXTT8=
EXTT9=
EXTT10=
EXTT11=
EXTT12=
EXTT13=
EXTT14=
EXTT15=
EXTT16=
EXTT17=
EXTT18=
PLAYORDER=
